<svg width="27" height="27" viewBox="0 0 27 27" fill="none" xmlns="http://www.w3.org/2000/svg">
<path d="M13.1456 2.71875C7.25578 2.71875 2.46484 7.50968 2.46484 13.3995C2.46484 19.2893 7.25578 24.0803 13.1456 24.0803C19.0354 24.0803 23.8263 19.2893 23.8263 13.3995C23.8263 7.50968 19.0354 2.71875 13.1456 2.71875ZM20.2088 7.64319C21.4797 9.19652 22.2499 11.1735 22.2679 13.3276C21.9675 13.2634 18.9507 12.6524 15.9159 13.0349C15.8517 12.8783 15.7875 12.7217 15.7208 12.5651C15.5308 12.1209 15.328 11.6767 15.1149 11.2428C18.486 9.86407 20.0162 7.90508 20.2088 7.64319ZM13.1456 4.29005C15.464 4.29005 17.5822 5.16043 19.192 6.58795C19.0277 6.8216 17.6541 8.66762 14.4114 9.88461C12.9171 7.1374 11.2611 4.88314 11.0069 4.54423C11.7078 4.37478 12.4241 4.29005 13.1456 4.29005V4.29005ZM9.26612 5.15786C9.50746 5.4865 11.1378 7.74846 12.6475 10.4341C8.38034 11.5663 4.62153 11.5509 4.2133 11.5458C4.80639 8.71383 6.71404 6.36202 9.26612 5.15786ZM4.02331 13.4123C4.02331 13.3199 4.02588 13.2249 4.02844 13.1325C4.4264 13.1402 8.84762 13.1967 13.4049 11.8333C13.6668 12.3443 13.9158 12.8629 14.1443 13.3815C14.0237 13.4149 13.903 13.4509 13.7849 13.4894C9.07869 15.0145 6.57539 19.1609 6.36743 19.5127C4.91166 17.8952 4.02331 15.7565 4.02331 13.4123ZM13.1456 22.5346C11.0351 22.5346 9.09153 21.8157 7.5459 20.609C7.71022 20.2727 9.55625 16.7064 14.7015 14.9118L14.7605 14.8912C16.0417 18.2187 16.5706 21.0095 16.7067 21.8106C15.5813 22.2916 14.3695 22.538 13.1456 22.5346V22.5346ZM18.2421 20.9762C18.1496 20.4216 17.6644 17.7514 16.4705 14.4727C19.3307 14.0157 21.8417 14.7654 22.1523 14.863C21.7467 17.3996 20.2909 19.5923 18.2421 20.9762V20.9762Z" fill="#EB5C95"/>
</svg>
