<svg width="31" height="31" viewBox="0 0 31 31" fill="none" xmlns="http://www.w3.org/2000/svg">
<path d="M15.1037 9.00491C11.7733 9.00491 9.08547 11.6927 9.08547 15.0231C9.08547 18.3535 11.7733 21.0413 15.1037 21.0413C18.4341 21.0413 21.1219 18.3535 21.1219 15.0231C21.1219 11.6927 18.4341 9.00491 15.1037 9.00491ZM15.1037 18.9345C12.9499 18.9345 11.1923 17.1769 11.1923 15.0231C11.1923 12.8693 12.9499 11.1117 15.1037 11.1117C17.2574 11.1117 19.015 12.8693 19.015 15.0231C19.015 17.1769 17.2574 18.9345 15.1037 18.9345ZM21.3683 7.35585C20.5908 7.35585 19.9628 7.98379 19.9628 8.76137C19.9628 9.53895 20.5908 10.1669 21.3683 10.1669C22.1459 10.1669 22.7739 9.54188 22.7739 8.76137C22.7741 8.57673 22.7379 8.39386 22.6673 8.22323C22.5968 8.0526 22.4933 7.89756 22.3627 7.767C22.2321 7.63644 22.0771 7.53292 21.9065 7.46237C21.7358 7.39182 21.553 7.35562 21.3683 7.35585V7.35585ZM26.8349 15.0231C26.8349 13.4034 26.8496 11.7983 26.7586 10.1816C26.6676 8.30362 26.2392 6.63695 24.866 5.26371C23.4898 3.88754 21.8261 3.46207 19.9481 3.37111C18.3284 3.28015 16.7234 3.29482 15.1066 3.29482C13.4869 3.29482 11.8818 3.28015 10.2651 3.37111C8.38712 3.46207 6.72045 3.89048 5.34721 5.26371C3.97104 6.63989 3.54557 8.30362 3.45461 10.1816C3.36364 11.8013 3.37831 13.4063 3.37831 15.0231C3.37831 16.6399 3.36364 18.2479 3.45461 19.8647C3.54557 21.7426 3.97397 23.4093 5.34721 24.7825C6.72338 26.1587 8.38712 26.5841 10.2651 26.6751C11.8848 26.7661 13.4898 26.7514 15.1066 26.7514C16.7263 26.7514 18.3314 26.7661 19.9481 26.6751C21.8261 26.5841 23.4927 26.1557 24.866 24.7825C26.2422 23.4063 26.6676 21.7426 26.7586 19.8647C26.8525 18.2479 26.8349 16.6428 26.8349 15.0231V15.0231ZM24.2527 21.9421C24.0385 22.4762 23.7803 22.8752 23.3666 23.286C22.9528 23.6997 22.5567 23.958 22.0227 24.1722C20.4793 24.7854 16.8143 24.6475 15.1037 24.6475C13.393 24.6475 9.72514 24.7854 8.18172 24.1751C7.64768 23.9609 7.24862 23.7027 6.83782 23.289C6.42409 22.8752 6.16587 22.4791 5.95167 21.9451C5.34134 20.3987 5.47925 16.7338 5.47925 15.0231C5.47925 13.3124 5.34134 9.64458 5.95167 8.10116C6.16587 7.56712 6.42409 7.16806 6.83782 6.75726C7.25155 6.34646 7.64768 6.08531 8.18172 5.87111C9.72514 5.26078 13.393 5.39869 15.1037 5.39869C16.8143 5.39869 20.4822 5.26078 22.0256 5.87111C22.5597 6.08531 22.9587 6.34353 23.3695 6.75726C23.7832 7.17099 24.0415 7.56712 24.2557 8.10116C24.866 9.64458 24.7281 13.3124 24.7281 15.0231C24.7281 16.7338 24.866 20.3987 24.2527 21.9421Z" fill="#353F40"/>
</svg>
