<svg width="23" height="24" viewBox="0 0 23 24" fill="none" xmlns="http://www.w3.org/2000/svg">
<g clip-path="url(#clip0)">
<path d="M4.55085 0.762695C2.12342 0.762695 0.136719 2.74935 0.136719 5.17683V18.8747C0.136719 21.3021 2.12338 23.2881 4.55085 23.2881H18.2487C20.6761 23.2881 22.6621 21.3021 22.6621 18.8747V5.17683C22.6621 2.7494 20.6761 0.762695 18.2487 0.762695H4.55085ZM5.66107 4.47983C6.82497 4.47983 7.54188 5.24391 7.56401 6.24828C7.56401 7.23048 6.82492 8.01604 5.63856 8.01604H5.61672C4.47497 8.01604 3.73701 7.23053 3.73701 6.24828C3.73701 5.24394 4.4973 4.47983 5.66105 4.47983H5.66107ZM15.691 9.17414C17.9294 9.17414 19.6074 10.6372 19.6074 13.7812V19.6504H16.2057V14.1747C16.2057 12.7987 15.7134 11.8599 14.4823 11.8599C13.5425 11.8599 12.9823 12.4926 12.7363 13.1039C12.6465 13.3226 12.6244 13.628 12.6244 13.9339V19.6504H9.22265C9.22265 19.6504 9.26729 10.3746 9.22265 9.41419H12.6251V10.8637C13.0772 10.1663 13.8858 9.17412 15.691 9.17412V9.17414ZM3.93767 9.41493H7.33942V19.6505H3.93767V9.41493V9.41493Z" fill="#0E76A8"/>
</g>
<defs>
<clipPath id="clip0">
<rect width="22.5352" height="22.5352" fill="white" transform="translate(0.131348 0.755859)"/>
</clipPath>
</defs>
</svg>
