<svg width="26" height="25" viewBox="0 0 26 25" fill="none" xmlns="http://www.w3.org/2000/svg">
<path d="M22.7556 6.16069C22.0148 6.48023 21.2087 6.71021 20.3784 6.79977C21.2404 6.28762 21.886 5.47851 22.1939 4.52425C21.385 5.00547 20.4988 5.34291 19.5747 5.5216C19.1884 5.10868 18.7213 4.77973 18.2023 4.55525C17.6834 4.33077 17.1238 4.21556 16.5584 4.21681C14.2708 4.21681 12.431 6.07112 12.431 8.34665C12.431 8.66619 12.4697 8.98573 12.5326 9.29317C9.10724 9.11403 6.05222 7.47759 4.0212 4.97209C3.65112 5.60419 3.45719 6.32391 3.45958 7.05638C3.45958 8.48947 4.18823 9.75312 5.29936 10.4963C4.64456 10.4705 4.00508 10.2905 3.43295 9.97099V10.0218C3.43295 12.0286 4.85152 13.6917 6.74215 14.0742C6.38716 14.1664 6.02198 14.2136 5.65522 14.2146C5.38651 14.2146 5.13233 14.188 4.87573 14.1517C5.39862 15.7881 6.92128 16.9767 8.73444 17.0154C7.31587 18.1266 5.53902 18.7802 3.60966 18.7802C3.26349 18.7802 2.94395 18.7681 2.6123 18.7294C4.44241 19.9034 6.61384 20.5812 8.95231 20.5812C16.5439 20.5812 20.6979 14.2921 20.6979 8.83322C20.6979 8.65409 20.6979 8.47495 20.6858 8.29581C21.4895 7.70756 22.1939 6.97891 22.7556 6.16069Z" fill="#00ACEE"/>
</svg>
